<svg xmlns="http://www.w3.org/2000/svg" viewBox="0 0 32 32" stroke="#000" fill="none" stroke-linejoin="round">
<path d="M18.5501 8H16.4499C16.2023 8 16 8.20228 16 8.4499V10.5501C16 10.7977 16.2023 11 16.4499 11H18.5501C18.7977 11 19 10.7977 19 10.5501V8.4499C19 8.20279 18.7972 8 18.5501 8Z" />
<path d="M10.5501 12H8.4499C8.20228 12 8 12.2023 8 12.4499V14.5501C8 14.7977 8.20228 15 8.4499 15H10.5501C10.7977 15 11 14.7977 11 14.5501V12.4499C11.0005 12.2023 10.7977 12 10.5501 12Z" />
<path d="M11 14H13.5V10.4108C13.5 10.1841 13.7065 10 13.9606 10H16" />
<path d="M15.0222 17H13.9785C13.7141 17 13.5 16.8587 13.5 16.6842V14H11" />
<path d="M21.0824 23.4496V18.6793C21.0824 18.3766 20.8347 18.1289 20.532 18.1289H15.7617C15.459 18.1289 15.2113 18.3766 15.2113 18.6793V23.4496C15.2113 23.7523 15.459 24 15.7617 24H20.532C20.8347 24 21.0824 23.7523 21.0824 23.4496Z" />
<path d="M21.9999 22.5321C22.3026 22.5321 22.5503 22.2844 22.5503 21.9817V17.2114C22.5503 16.9087 22.3026 16.661 21.9999 16.661H17.2296C16.9269 16.661 16.6792 16.9087 16.6792 17.2114" />
<path d="M23.4678 21.0642C23.7705 21.0642 24.0182 20.8165 24.0182 20.5138V15.7435C24.0182 15.4408 23.7705 15.1931 23.4678 15.1931H18.6975C18.3948 15.1931 18.1471 15.4408 18.1471 15.7435" />
<path d="M15.4711 18.3882L20.8237 23.7408" />
</svg>
