<svg width="26" height="23" viewBox="0 0 26 23" fill="none" xmlns="http://www.w3.org/2000/svg">
<g clip-path="url(#clip0)">
<path d="M13.0113 0L0 22.5333H26.0188L13.0113 0ZM10.0477 19.8448V11.2441L10.3152 10.0496L17.7667 14.349L18.6672 15.1799L11.2158 19.4793L10.0477 19.8448ZM10.4245 9.54652L10.7843 7.93188L16.1068 12.8304L10.4245 9.54652ZM9.55406 19.9993L7.9771 20.4929L9.55406 13.4371V19.9993ZM19.0422 15.5246L20.2593 16.6438L13.3617 18.8067L19.0422 15.5246ZM11.0142 7.30638L11.5248 5.95174L17.5538 13.3259L11.0142 7.30638ZM7.32522 20.6097L5.8971 20.8528L9.2658 11.928L7.32522 20.6097ZM20.702 17.1525L21.6064 18.2716L12.2012 19.8128L20.702 17.1525ZM11.7339 5.04362L12.2652 3.96029L18.7087 13.569L11.7339 5.04362ZM5.00594 21.1165L3.80203 21.1994L8.90029 10.8145L5.00594 21.1165ZM22.2903 18.9065L22.9629 19.9107L11.4212 20.6888L22.2903 18.9065ZM19.5038 13.2091L12.5328 2.80536L13.0188 1.96319L19.5038 13.2091ZM8.19377 10.302L2.67159 21.5517H1.69942L8.19377 10.302ZM11.3307 21.5461L23.8333 20.7058L24.3194 21.5461H11.3307Z" fill="#FFD500"/>
</g>
<defs>
<clipPath id="clip0">
<rect width="26" height="22.6087" fill="white"/>
</clipPath>
</defs>
</svg>
