<svg version="1.0" xmlns="http://www.w3.org/2000/svg"
  viewBox="0 0 32 32" stroke="#000" stroke-linejoin="round"
 preserveAspectRatio="xMidYMid meet">

<g transform="translate(0,32) scale(0.003125,-0.003125)" stroke-width="1">
<path d="M4975 8874 c-170 -41 -320 -161 -393 -315 -47 -98 -62 -162 -62 -264
0 -41 -2 -75 -4 -75 -3 0 -26 14 -51 31 -154 104 -389 111 -570 16 -86 -45
-204 -165 -243 -247 -64 -136 -62 -94 -62 -1442 l-1 -1223 -62 120 c-51 98
-76 134 -137 195 -117 118 -236 170 -391 170 -273 0 -508 -178 -574 -435 -19
-73 -19 -182 -1 -255 22 -89 607 -1547 741 -1845 206 -461 382 -742 676 -1080
165 -191 265 -354 325 -532 47 -140 87 -193 174 -232 44 -20 60 -21 1185 -21
l1140 0 50 24 c59 28 118 86 139 137 8 20 24 78 34 130 36 175 125 356 296
599 181 257 277 456 341 703 67 263 66 220 63 2127 l-3 1715 -26 66 c-92 237
-269 372 -504 386 -115 6 -215 -14 -315 -64 -41 -21 -77 -39 -80 -40 -3 -2 -5
135 -5 305 0 294 -1 310 -23 382 -53 167 -148 285 -290 358 -100 51 -165 66
-282 65 -107 -1 -227 -33 -292 -78 -20 -14 -39 -25 -42 -25 -4 0 -6 33 -6 73
0 157 -55 284 -174 403 -88 88 -178 140 -291 169 -73 19 -200 18 -280 -1z
m316 -220 c119 -56 208 -173 230 -302 6 -34 9 -595 8 -1412 l-1 -1354 31 -28
c43 -39 92 -38 132 1 l29 29 0 1134 c0 1244 -3 1190 60 1274 16 23 54 58 82
77 230 156 536 21 589 -258 9 -44 10 -382 5 -1268 -7 -1297 -8 -1259 42 -1286
56 -30 134 -2 147 52 3 12 6 369 8 792 l2 770 29 58 c36 71 99 130 174 165 81
38 212 43 295 12 75 -28 163 -109 202 -187 l30 -58 3 -1720 c2 -1185 0 -1749
-8 -1815 -36 -320 -125 -536 -368 -900 -200 -298 -270 -442 -318 -650 -28
-124 -38 -136 -127 -145 -34 -3 -528 -5 -1097 -3 -962 3 -1038 4 -1062 20 -20
13 -33 38 -52 100 -57 187 -175 384 -355 593 -245 284 -375 476 -530 785 -129
255 -190 400 -752 1790 l-103 255 -1 100 c0 95 2 103 34 163 40 74 100 130
179 169 47 23 73 28 154 31 91 4 101 2 161 -26 81 -37 143 -97 194 -187 22
-38 131 -241 243 -450 111 -209 215 -392 230 -406 20 -19 46 -30 93 -38 266
-46 508 -172 702 -366 120 -119 210 -249 295 -428 33 -69 70 -133 83 -142 12
-8 38 -15 58 -15 30 0 43 7 64 32 39 46 31 90 -44 245 -83 172 -174 304 -289
425 -204 213 -449 355 -733 425 l-109 26 -70 134 -70 134 2 1427 3 1427 27 57
c37 80 107 152 187 191 60 29 74 32 161 32 82 0 103 -4 151 -26 76 -36 133
-90 166 -157 l28 -57 3 -1126 3 -1127 25 -25 c29 -29 57 -36 101 -25 65 17 61
-80 68 1418 6 1298 7 1367 25 1417 33 93 102 172 190 218 68 36 113 45 205 42
76 -2 100 -7 156 -33z"/>
</g>
</svg>
