<svg width="230" height="230" viewBox="0 0 230 230" fill="none" xmlns="http://www.w3.org/2000/svg">
<path d="M36.718 184.279H118.202C125.843 184.279 132.094 178.027 132.094 170.387V122.561C132.094 114.92 125.842 108.668 118.202 108.668H36.718C29.0766 108.668 22.8252 114.921 22.8252 122.561V170.387C22.8244 178.027 29.0766 184.279 36.718 184.279Z" fill="white"/>
<path d="M74.155 109.079H35.3034C28.5567 109.079 23.0367 114.599 23.0367 121.345V172.424C23.0367 179.17 28.5567 184.69 35.3034 184.69H119.985C126.731 184.69 132.251 179.17 132.251 172.424V131.75" fill="white"/>
<path d="M110.083 129.755H44.9926V132.822H110.083V129.755Z" fill="#AAAAAA"/>
<path d="M65.9088 137.347H44.9926V140.413H65.9088V137.347Z" fill="#AAAAAA"/>
<path d="M91.5584 144.94H44.9926V148.007H91.5584V144.94Z" fill="#AAAAAA"/>
<path d="M65.9088 152.943H44.9926V156.01H65.9088V152.943Z" fill="#AAAAAA"/>
<path d="M110.083 160.946H44.9926V164.013H110.083V160.946Z" fill="#AAAAAA"/>
<path d="M195.764 187.952C208.92 187.952 219.585 177.287 219.585 164.13C219.585 150.974 208.92 140.309 195.764 140.309C182.607 140.309 171.942 150.974 171.942 164.13C171.942 177.287 182.607 187.952 195.764 187.952Z" fill="white"/>
<path d="M195.764 189.486C181.783 189.486 170.409 178.111 170.409 164.13C170.409 150.15 181.783 138.776 195.764 138.776C209.745 138.776 221.119 150.15 221.119 164.13C221.119 178.111 209.745 189.486 195.764 189.486ZM195.764 141.843C183.474 141.843 173.476 151.841 173.476 164.13C173.476 176.42 183.474 186.419 195.764 186.419C208.053 186.419 218.052 176.42 218.052 164.13C218.052 151.841 208.053 141.843 195.764 141.843Z" fill="#AAAAAA"/>
<path d="M195.764 189.486C181.783 189.486 170.409 178.111 170.409 164.13C170.409 150.15 181.783 138.776 195.764 138.776C209.745 138.776 221.119 150.15 221.119 164.13C221.119 178.111 209.745 189.486 195.764 189.486ZM195.764 141.843C183.474 141.843 173.476 151.841 173.476 164.13C173.476 176.42 183.474 186.419 195.764 186.419C208.053 186.419 218.052 176.42 218.052 164.13C218.052 151.841 208.053 141.843 195.764 141.843Z" fill="#AAAAAA"/>
<g clip-path="url(#clip0_251_13287)">
<path d="M195.932 145.05L178.764 174.95H213.075L195.932 145.05ZM192.006 171.375V159.975L192.354 158.4L202.168 164.1L203.36 165.2L193.547 170.9L192.006 171.375ZM192.503 157.725L192.975 155.575L199.982 162.075L192.503 157.725ZM191.36 171.575L189.273 172.225L191.36 162.875C191.36 162.875 191.36 171.575 191.36 171.575ZM203.882 165.65L205.497 167.125L196.379 170L203.882 165.65ZM193.298 154.75L193.969 152.95L201.919 162.725L193.298 154.75ZM188.429 172.4L186.541 172.725L190.988 160.875L188.429 172.4ZM206.069 167.8L207.261 169.275L194.864 171.325L206.069 167.8ZM194.242 151.75L194.938 150.3L203.435 163.05L194.242 151.75ZM185.373 173.075L183.783 173.175L190.516 159.4L185.373 173.075ZM208.155 170.125L209.05 171.45L193.82 172.475L208.155 170.125ZM204.478 162.575L195.286 148.775L195.932 147.65L204.478 162.575ZM189.572 158.725L182.292 173.65H181L189.572 158.725ZM193.696 173.65L210.193 172.525L210.839 173.65H193.696Z" fill="#FFD800"/>
</g>
<path d="M156.608 162.597H133.784V131.75H130.717V172.424C130.717 178.342 125.903 183.157 119.984 183.157H35.3034C29.3855 183.157 24.5701 178.342 24.5701 172.424V121.346C24.5701 115.427 29.3848 110.613 35.3034 110.613H74.155V107.546H35.3034C27.6943 107.546 21.5034 113.737 21.5034 121.346V172.424C21.5034 180.033 27.6943 186.224 35.3034 186.224H119.985C127.594 186.224 133.785 180.033 133.785 172.424V165.665H156.609V162.597H156.608Z" fill="#AAAAAA"/>
<path d="M200.384 41.9434H100.369C92.7597 41.9434 86.5688 48.1342 86.5688 55.7434V106.822C86.5688 114.431 92.7597 120.622 100.369 120.622H200.384C207.993 120.622 214.184 114.431 214.184 106.822V55.7434C214.184 48.1342 207.993 41.9434 200.384 41.9434Z" fill="#FFD800"/>
<path d="M180.039 64.1538H114.949V67.2205H180.039V64.1538Z" fill="#3E3A39"/>
<path d="M151.198 71.7471H114.949V74.8137H151.198V71.7471Z" fill="#3E3A39"/>
<path d="M169.181 79.3384H114.949V82.405H169.181V79.3384Z" fill="#3E3A39"/>
<path d="M151.198 87.3418H114.949V90.4085H151.198V87.3418Z" fill="#3E3A39"/>
<path d="M180.039 95.3447H114.949V98.4114H180.039V95.3447Z" fill="#3E3A39"/>
<path d="M86.4785 66.6421H61.8309V69.7088H86.4785V66.6421Z" fill="#FFD800"/>
<path d="M38.009 91.9973C51.1655 91.9973 61.8309 81.3318 61.8309 68.1754C61.8309 55.0189 51.1655 44.3535 38.009 44.3535C24.8525 44.3535 14.1871 55.0189 14.1871 68.1754C14.1871 81.3318 24.8525 91.9973 38.009 91.9973Z" fill="white"/>
<path d="M38.009 93.5307C24.0281 93.5307 12.6538 82.1564 12.6538 68.1755C12.6538 54.1946 24.0281 42.8203 38.009 42.8203C51.9899 42.8203 63.3642 54.1946 63.3642 68.1755C63.3642 82.1564 51.9899 93.5307 38.009 93.5307ZM38.009 45.887C25.7193 45.887 15.7205 55.8858 15.7205 68.1755C15.7205 80.4652 25.7193 90.464 38.009 90.464C50.2987 90.464 60.2975 80.4652 60.2975 68.1755C60.2975 55.8858 50.2987 45.887 38.009 45.887Z" fill="#AAAAAA"/>
<path d="M38.0091 70.2064C42.618 70.2064 46.3543 66.4702 46.3543 61.8613C46.3543 57.2524 42.618 53.5161 38.0091 53.5161C33.4002 53.5161 29.6639 57.2524 29.6639 61.8613C29.6639 66.4702 33.4002 70.2064 38.0091 70.2064Z" fill="#3E3A39"/>
<path d="M38.0091 56.6755C40.8688 56.6755 43.1948 59.0024 43.1948 61.8613C43.1948 64.7202 40.868 67.047 38.0091 67.047C35.1502 67.047 32.8234 64.7202 32.8234 61.8613C32.8234 59.0024 35.1494 56.6755 38.0091 56.6755ZM38.0091 53.5161C33.3999 53.5161 29.6639 57.2528 29.6639 61.8613C29.6639 66.4697 33.4007 70.2064 38.0091 70.2064C42.6175 70.2064 46.3543 66.4697 46.3543 61.8613C46.3543 57.2528 42.6183 53.5161 38.0091 53.5161Z" fill="#3E3A39"/>
<path d="M25.9862 82.8348C25.9862 78.1704 31.369 74.3892 38.0091 74.3892C44.6492 74.3892 50.0319 78.1704 50.0319 82.8348V89.8125L38.0091 91.5625L25.9862 89.8125V82.8348Z" fill="#3E3A39"/>
<path d="M51.6113 88.75H24.4069V82.8348C24.4069 77.3071 30.5088 72.8091 38.0091 72.8091C45.5094 72.8091 51.6113 77.3063 51.6113 82.8348V88.75ZM27.5663 90.4171H48.4518V82.8348C48.4518 79.1134 43.6694 75.9685 38.0091 75.9685C32.3488 75.9685 27.5663 79.1126 27.5663 82.8348V90.4171Z" fill="#3E3A39"/>
<path d="M38.009 93.5307C24.0281 93.5307 12.6538 82.1564 12.6538 68.1755C12.6538 54.1946 24.0281 42.8203 38.009 42.8203C51.9899 42.8203 63.3642 54.1946 63.3642 68.1755C63.3642 82.1564 51.9899 93.5307 38.009 93.5307ZM38.009 45.887C25.7193 45.887 15.7205 55.8858 15.7205 68.1755C15.7205 80.4652 25.7193 90.464 38.009 90.464C50.2987 90.464 60.2975 80.4652 60.2975 68.1755C60.2975 55.8858 50.2987 45.887 38.009 45.887Z" fill="#AAAAAA"/>
<defs>
<clipPath id="clip0_251_13287">
<rect width="34.2857" height="30" fill="white" transform="translate(178.764 145)"/>
</clipPath>
</defs>
</svg>
