<svg viewBox="0 0 600 600" fill="none" xmlns="http://www.w3.org/2000/svg">
<path d="M348.162 303.387C391.409 297.97 424.851 261.167 424.851 216.464C424.851 168.014 385.607 128.77 337.157 128.77C335.295 128.77 333.432 128.877 331.569 129.091C318.082 90.618 281.578 63 238.502 63C184.036 63 139.847 107.168 139.847 161.655C139.847 166.59 140.296 171.3 141.067 176.02C114.862 184.67 96 209.334 96 238.387C96 274.655 125.502 304.157 161.77 304.157H172.774H219.68" />
<path d="M148.839 370.125V389.614C148.839 390.851 149.851 391.863 151.088 391.863H170.577C171.814 391.863 172.826 390.851 172.826 389.614V370.125C172.826 368.888 171.814 367.876 170.577 367.876H151.088C149.851 367.876 148.839 368.888 148.839 370.125Z" fill="#FFEB74"/>
<path d="M428.348 343.567V363.056C428.348 364.293 429.36 365.305 430.597 365.305H450.086C451.323 365.305 452.335 364.293 452.335 363.056V343.567C452.335 342.33 451.323 341.318 450.086 341.318H430.597C429.36 341.318 428.348 342.33 428.348 343.567Z" fill="#AAAAAA"/>
<path d="M442.342 343.318V283.6C442.342 282.496 441.446 281.6 440.342 281.6C439.237 281.6 438.342 282.496 438.342 283.6V343.318C438.342 344.423 439.237 345.318 440.342 345.318C441.446 345.318 442.342 344.423 442.342 343.318Z" fill="#AAAAAA"/>
<path d="M162.832 304.158H158.832V367.876H162.832V304.158Z" fill="#FFEB74"/>
<path d="M306.293 419.061H302.293V415.061H306.293V419.061ZM306.293 403.061H302.293V399.061H306.293V403.061ZM306.293 387.061H302.293V383.061H306.293V387.061ZM306.293 371.061H302.293V367.061H306.293V371.061ZM306.293 355.061H302.293V351.061H306.293V355.061Z" fill="#AAAAAA"/>
<path d="M262.425 418.211H258.425V418.026H262.425V418.211ZM262.425 406.026H258.425V402.026H262.425V406.026ZM262.425 390.026H258.425V386.026H262.425V390.026ZM262.425 374.026H258.425V370.026H262.425V374.026ZM262.425 358.026H258.425V354.026H262.425V358.026Z" fill="#FFD800"/>
<path d="M200.203 192.358H180.714C179.477 192.358 178.465 193.37 178.465 194.607V214.096C178.465 215.333 179.477 216.345 180.714 216.345H200.203C201.44 216.345 202.452 215.333 202.452 214.096V194.607C202.452 193.37 201.44 192.358 200.203 192.358Z" fill="#3E3A39"/>
<path d="M244.377 206.352H202.452V202.352H240.377V145.423H273.45V149.423H244.377V206.352Z" fill="#AAAAAA"/>
<path d="M292.057 237.017H240.377V176.442H244.377V233.017H292.057V237.017Z" fill="#AAAAAA"/>
<path d="M295.188 135.429H275.699C274.462 135.429 273.45 136.441 273.45 137.678V157.167C273.45 158.404 274.462 159.416 275.699 159.416H295.188C296.425 159.416 297.437 158.404 297.437 157.167V137.678C297.437 136.441 296.425 135.429 295.188 135.429Z" fill="#3E3A39"/>
<path d="M207.687 346.139V365.628C207.687 366.865 208.699 367.877 209.936 367.877H229.425C230.662 367.877 231.674 366.865 231.674 365.628V346.139C231.674 344.902 230.662 343.89 229.425 343.89H209.936C208.699 343.89 207.687 344.902 207.687 346.139Z" fill="#AAAAAA"/>
<path d="M360.155 281.109V261.62C360.155 260.383 359.143 259.371 357.906 259.371H338.417C337.18 259.371 336.168 260.383 336.168 261.62V281.109C336.168 282.346 337.18 283.358 338.417 283.358H357.906C359.143 283.358 360.155 282.346 360.155 281.109Z" fill="#AAAAAA"/>
<path d="M221.68 343.889H217.68V306.158H161.77C124.401 306.158 94 275.757 94 238.388C94 209.685 111.946 184.294 138.834 174.674C138.17 170.16 137.847 165.885 137.847 161.656C137.847 106.153 183 61 238.502 61C280.633 61 318.378 87.438 332.923 126.947C334.335 126.829 335.753 126.77 337.156 126.77C386.614 126.77 426.85 167.006 426.85 216.464C426.85 261.548 393.128 299.77 348.411 305.371C347.844 305.445 347.268 305.267 346.839 304.887C346.408 304.507 346.162 303.961 346.162 303.387V283.359H350.162V301.091C391.759 294.761 422.85 258.776 422.85 216.464C422.85 169.212 384.408 130.77 337.156 130.77C335.379 130.77 333.575 130.874 331.797 131.078C330.872 131.187 329.991 130.635 329.681 129.753C316.105 91.022 279.462 65 238.502 65C185.207 65 141.847 108.359 141.847 161.655C141.847 166.184 142.238 170.778 143.04 175.698C143.199 176.669 142.627 177.611 141.693 177.92C115.558 186.546 97.999 210.847 97.999 238.388C97.999 273.551 126.606 302.158 161.769 302.158H219.679C220.783 302.158 221.679 303.054 221.679 304.158V343.889H221.68Z" fill="#AAAAAA"/>
<path d="M316.287 244.762V225.273C316.287 224.036 315.275 223.024 314.038 223.024H294.549C293.312 223.024 292.3 224.036 292.3 225.273V244.762C292.3 245.999 293.312 247.011 294.549 247.011H314.038C315.275 247.011 316.287 245.999 316.287 244.762Z" fill="#3E3A39"/>
<path d="M306.293 247.011H302.293V344.727H306.293V247.011Z" fill="#AAAAAA"/>
<path d="M272.418 288.059V268.57C272.418 267.333 271.406 266.321 270.169 266.321H250.68C249.443 266.321 248.431 267.333 248.431 268.57V288.059C248.431 289.296 249.443 290.308 250.68 290.308H270.169C271.407 290.307 272.418 289.295 272.418 288.059Z" fill="#FFD800"/>
<path d="M262.425 290.307H258.425V354.027H262.425V290.307Z" fill="#FFD800"/>
<path d="M304.522 536.348C328.919 536.348 348.696 516.571 348.696 492.174C348.696 467.777 328.919 448 304.522 448C280.126 448 260.348 467.777 260.348 492.174C260.348 516.571 280.126 536.348 304.522 536.348Z" fill="white"/>
<path d="M304.522 538.348C279.062 538.348 258.348 517.634 258.348 492.174C258.348 466.714 279.061 446 304.522 446C329.983 446 350.696 466.714 350.696 492.174C350.696 517.634 329.982 538.348 304.522 538.348ZM304.522 450C281.267 450 262.348 468.919 262.348 492.174C262.348 515.429 281.267 534.348 304.522 534.348C327.777 534.348 346.696 515.429 346.696 492.174C346.696 468.919 327.777 450 304.522 450Z" fill="#EFF1F2"/>
<path d="M321.624 471.381H287.42C285.39 471.381 283.729 473.042 283.729 475.072V509.276C283.729 511.306 285.39 512.967 287.42 512.967H321.624C323.654 512.967 325.315 511.306 325.315 509.276V475.072C325.315 473.042 323.654 471.381 321.624 471.381Z" fill="white"/>
<path d="M321.624 514.967H287.42C284.282 514.967 281.729 512.414 281.729 509.276V475.072C281.729 471.934 284.282 469.382 287.42 469.382H321.624C324.762 469.382 327.315 471.935 327.315 475.072V509.276C327.315 512.414 324.762 514.967 321.624 514.967ZM287.42 473.381C286.488 473.381 285.729 474.14 285.729 475.071V509.275C285.729 510.208 286.488 510.966 287.42 510.966H321.624C322.557 510.966 323.315 510.207 323.315 509.275V475.071C323.315 474.139 322.556 473.381 321.624 473.381H287.42Z" fill="#AAAAAA"/>
<path d="M315.142 490.174H306.522V481.554H302.522V490.174H293.903V494.174H302.522V502.793H306.522V494.174H315.142V490.174Z" fill="#3E3A39"/>
<path d="M449.399 285.636H440.272V281.608H449.399C478.368 281.608 501.935 258.041 501.935 229.072C501.935 206.383 487.469 186.364 465.939 179.258L464.304 178.719L464.582 177.021C465.245 172.959 465.568 169.167 465.568 165.431C465.568 121.423 429.764 85.6189 385.756 85.6189C362.197 85.6189 340.368 96.044 325.5 113.179C324.5 112 324.241 111 323.375 109.5C338.966 92.1194 361.487 81.5889 385.756 81.5889C431.985 81.5889 469.596 119.2 469.596 165.429C469.596 168.865 469.34 172.335 468.815 175.991C491.106 184.093 505.962 205.211 505.962 229.071C505.962 260.261 480.588 285.636 449.399 285.636Z" fill="#AAAAAA"/>
</svg>