<svg xmlns="http://www.w3.org/2000/svg" fill="none" viewBox="0 0 230 230"><path fill="#3E3A39" d="M88.282 206.158H77.655v26.093h10.627v-26.093ZM61.574 220.264H50.947v6.988h10.627v-6.988ZM74.928 225.993H64.301v8.757h10.627v-8.757Z"/><path fill="#FFD800" d="M88.282 197.297H77.655v10.848h10.627v-10.848ZM74.928 217.629H64.301v10.352h10.627v-10.352ZM61.574 207.744H50.947v14.509h10.627v-14.509Z"/><path fill="#6E6E6E" d="M61.574 225.264H50.947v11.986h10.627v-11.986Z"/><path fill="#AAA" d="m90.035 188.192-16.612 17.949 1.46 1.35 16.611-17.949-1.459-1.35ZM48.666 199.445l-.668 1.873 21.267 7.581.667-1.872-21.266-7.582Z"/><path fill="#AAA" d="m91.951 186.121-20.444 22.091 1.46 1.35 20.443-22.091-1.459-1.35Z"/><path fill="#AAA" d="m46.006 198.492-.667 1.873 26.571 9.473.668-1.873-26.572-9.473Z"/><path fill="#AAA" d="M44.886 198.802 25.58 223.637l1.569 1.22 19.305-24.835-1.57-1.22Z"/><path fill="#3E3A43" d="M92.705 183.973a2.824 2.824 0 1 0 0 5.647 2.824 2.824 0 0 0 0-5.647ZM72.263 206.068a2.824 2.824 0 1 0 0 5.647 2.824 2.824 0 0 0 0-5.647ZM45.689 196.595a2.824 2.824 0 1 0 .001 5.649 2.824 2.824 0 0 0-.001-5.649ZM26.384 221.433a2.824 2.824 0 1 0 0 5.647 2.824 2.824 0 0 0 0-5.647Z"/><path fill="#fff" d="M149.536 136.477c7.206 0 13.048-5.842 13.048-13.048s-5.842-13.048-13.048-13.048-13.047 5.842-13.047 13.048 5.841 13.048 13.047 13.048Z"/><path fill="#AAA" d="M149.536 137.471c-7.742 0-14.041-6.299-14.041-14.042 0-7.743 6.299-14.042 14.041-14.042 7.743 0 14.042 6.299 14.042 14.042 0 7.743-6.299 14.042-14.042 14.042Zm0-26.096c-6.646 0-12.054 5.408-12.054 12.054s5.408 12.054 12.054 12.054c6.647 0 12.054-5.408 12.054-12.054s-5.407-12.054-12.054-12.054Z"/><path fill="#AAA" d="M136.224 122.435h-9.096v1.988h9.096v-1.988ZM171.796 122.435h-9.095v1.988h9.095v-1.988ZM150.456 136.667h-1.988v9.096h1.988v-9.096ZM150.456 101.095h-1.988v9.096h1.988v-9.096Z"/><path fill="#fff" d="M176.35 127.877a4.448 4.448 0 1 0 0-8.896 4.448 4.448 0 0 0 0 8.896Z"/><path fill="#AAA" d="M176.35 128.871a5.448 5.448 0 0 1-5.442-5.442c0-3 2.441-5.441 5.442-5.441a5.448 5.448 0 0 1 5.442 5.441 5.448 5.448 0 0 1-5.442 5.442Zm0-8.896a3.458 3.458 0 0 0-3.454 3.454 3.458 3.458 0 0 0 3.454 3.453 3.458 3.458 0 0 0 3.454-3.453 3.458 3.458 0 0 0-3.454-3.454ZM122.576 128.871a5.448 5.448 0 0 1-5.442-5.442c0-3 2.441-5.441 5.442-5.441 3 0 5.441 2.441 5.441 5.441a5.448 5.448 0 0 1-5.441 5.442Zm0-8.896a3.457 3.457 0 0 0-3.454 3.454 3.457 3.457 0 0 0 3.454 3.453 3.457 3.457 0 0 0 3.453-3.453 3.457 3.457 0 0 0-3.453-3.454Z"/><path fill="#fff" d="M149.463 154.764a4.448 4.448 0 1 0 0-8.896 4.448 4.448 0 0 0 0 8.896Z"/><path fill="#AAA" d="M149.463 155.758a5.448 5.448 0 0 1-5.442-5.442c0-3 2.441-5.441 5.442-5.441 3 0 5.441 2.441 5.441 5.441a5.448 5.448 0 0 1-5.441 5.442Zm0-8.896a3.458 3.458 0 0 0-3.454 3.454 3.457 3.457 0 0 0 3.454 3.454 3.457 3.457 0 0 0 3.453-3.454 3.458 3.458 0 0 0-3.453-3.454ZM149.463 101.984a5.448 5.448 0 0 1-5.442-5.442c0-3 2.441-5.442 5.442-5.442 3 0 5.441 2.441 5.441 5.442 0 3-2.441 5.442-5.441 5.442Zm0-8.896a3.458 3.458 0 0 0-3.454 3.454 3.458 3.458 0 0 0 3.454 3.454 3.457 3.457 0 0 0 3.453-3.454 3.457 3.457 0 0 0-3.453-3.454ZM131.923 142.701a1.732 1.732 0 1 0 0-3.464 1.732 1.732 0 0 0 0 3.464ZM167.002 107.621a1.732 1.732 0 1 0 0-3.464 1.732 1.732 0 0 0 0 3.464ZM131.923 107.621a1.731 1.731 0 1 0 .001-3.463 1.731 1.731 0 0 0-.001 3.463ZM167.002 142.701a1.733 1.733 0 1 0-.001-3.465 1.733 1.733 0 0 0 .001 3.465ZM136.341 138.283a1.733 1.733 0 1 0-.001-3.465 1.733 1.733 0 0 0 .001 3.465ZM162.584 112.039a1.731 1.731 0 1 0 .001-3.463 1.731 1.731 0 0 0-.001 3.463ZM136.341 112.039a1.732 1.732 0 1 0 0-3.464 1.732 1.732 0 0 0 0 3.464ZM162.584 138.283a1.732 1.732 0 1 0 0-3.464 1.732 1.732 0 0 0 0 3.464Z"/><path fill="#3E3A43" d="M158.061 126.272h-1.894v1.895h1.894v-1.895Z"/><path fill="#FFD800" d="M158.061 122.483h-1.894v1.895h1.894v-1.895Z"/><path fill="#FFD500" d="M158.061 118.695h-1.894v1.894h1.894v-1.894Z"/><path fill="#3E3A43" d="M154.272 130.061h-1.894v1.894h1.894v-1.894Z"/><path fill="#7D7D7D" d="M154.272 126.272h-1.894v1.895h1.894v-1.895Z"/><path fill="#FFD800" d="M154.272 122.483h-1.894v1.895h1.894v-1.895ZM154.272 118.695h-1.894v1.894h1.894v-1.894Z"/><path fill="#FFEB74" d="M146.695 130.061H144.8v1.894h1.895v-1.894Z"/><path fill="#7D7D7D" d="M146.695 126.272H144.8v1.895h1.895v-1.895Z"/><path fill="#FFEB74" d="M146.695 122.483H144.8v1.895h1.895v-1.895Z"/><path fill="#3E3A43" d="M146.695 118.695H144.8v1.894h1.895v-1.894ZM142.907 126.272h-1.895v1.895h1.895v-1.895Z"/><path fill="#FFD800" d="M142.907 122.483h-1.895v1.895h1.895v-1.895Z"/><path fill="#FFD500" d="M142.907 118.695h-1.895v1.894h1.895v-1.894Z"/><path fill="#FFEB74" d="M150.484 130.061h-1.895v1.894h1.895v-1.894Z"/><path fill="#3E3A43" d="M150.484 126.272h-1.895v1.895h1.895v-1.895ZM150.484 122.483h-1.895v1.895h1.895v-1.895Z"/><path fill="#FFD500" d="M150.484 118.695h-1.895v1.894h1.895v-1.894Z"/><path fill="#3E3A43" d="M154.272 114.93h-1.894v1.895h1.894v-1.895Z"/><path fill="#FFEB74" d="M146.695 114.931H144.8v1.894h1.895v-1.894ZM150.484 114.93h-1.895v1.895h1.895v-1.895Z"/><path fill="#AAA" d="M27.28 192.325H.406v-85.106h1.988v83.118H27.28v1.988ZM2.395 107.219H.407V41.1h30.114v1.988H2.395v64.131Z"/><path fill="#fff" d="M149.451 73.115c5.496 0 9.951 4.651 9.951 10.39 0 3.773-1.948 6.752-4.81 8.901-.719.665-.719 2.503-.719 2.503v.84h-8.844v-.84s0-1.838-.719-2.503c-2.862-2.149-4.81-5.127-4.81-8.9 0-5.74 4.454-10.391 9.951-10.391Z"/><path fill="#AAA" d="M154.867 96.743h-10.832v-1.834c-.003-.697-.184-1.525-.379-1.75-3.37-2.553-5.15-5.89-5.15-9.653-.001-3.033 1.132-5.886 3.189-8.035 2.069-2.16 4.823-3.35 7.755-3.35 6.036 0 10.945 5.107 10.945 11.385 0 3.764-1.781 7.1-5.151 9.652-.194.227-.375 1.054-.378 1.753l.001 1.832Zm-8.847-1.988h6.862c.016-.596.145-2.254 1.035-3.078l.078-.066c2.013-1.511 4.413-4.145 4.413-8.106 0-5.181-4.018-9.397-8.957-9.397-2.385 0-4.629.972-6.319 2.737-1.702 1.777-2.638 4.142-2.638 6.66 0 3.961 2.4 6.594 4.413 8.106l.077.064c.892.825 1.02 2.484 1.036 3.08ZM136.293 68.677l-1.405 1.405 3.66 3.66 1.406-1.406-3.661-3.66ZM163.468 68.705l-3.66 3.66 1.405 1.406 3.661-3.66-1.406-1.406ZM150.878 63.472h-1.987v5.176h1.987v-5.176ZM170.086 82.68h-5.177v1.987h5.177v-1.988ZM134.86 82.68h-5.176v1.987h5.176v-1.988Z"/><path fill="#3E3A39" d="M150.606 93.607h-1.987v-3.135l-3.033-3.032a.992.992 0 0 1 .702-1.697h6.532v1.988h-4.131l1.626 1.627c.187.186.291.44.291.703v3.546Z"/><path fill="#AAA" d="M98.633 122.081H1.401v1.987h97.232v-1.987Z"/><path fill="#FFD800" d="M90.557-1.483H67.323V.505h23.234v-1.988Z"/><path fill="#AAA" d="M88.917 1.975H68.462v1.988h20.455V1.975ZM86.312 5.433H70.601V7.42h15.711V5.433Z"/><path fill="#3E3A39" d="M82.099 8.89h-8.353v1.989H82.1V8.89ZM93.76 77.077H70.83v1.987h22.93v-1.987Z"/><path fill="#AAA" d="M92.633 73.619H72.471v1.987h20.162V73.62Z"/><path fill="#FFD800" d="M90.583 70.16H75.077v1.989h15.506V70.16Z"/><path fill="#AAA" d="M87.612 66.703H79.29v1.988h8.322v-1.988Z"/><path fill="#3E3A39" d="M90.16 44.227H78.1v1.987H90.16v-1.987Z"/><path fill="#FFD800" d="M73.173 44.227h-5.1v1.987h5.1v-1.987ZM88.52 47.684H69.483v1.988H88.52v-1.988Z"/><path fill="#AAA" d="M85.915 51.142H71.598v1.988h14.317v-1.988ZM81.702 54.6h-7.246v1.988h7.246V54.6ZM90.16 30.396H68.073v1.988H90.16v-1.988Z"/><path fill="#FFD800" d="M88.037 26.938H83.29v1.988h4.747v-1.988ZM78.872 26.938h-9.35v1.988h9.35v-1.988Z"/><path fill="#AAA" d="M85.915 23.48H71.598v1.988h14.317V23.48ZM82.73 20.024h-8.046v1.988h8.046v-1.988Z"/><path fill="#3E3A39" d="M90.836 33.853H67.291v1.988h23.545v-1.988Z"/><path fill="#AAA" d="M91.126 37.311h-24.08V39.3h24.08v-1.988ZM90.835 40.77H67.323v1.987h23.512V40.77ZM77.5 14.502C71.236 9.306 66.052 4.374 66.052-3.388h1.988c0 6.91 4.65 11.317 10.73 16.36l-1.27 1.53ZM95.059 81.182H93.07c0-7.076-4.726-11.77-10.434-16.746l1.306-1.499c5.858 5.106 11.116 10.344 11.116 18.245Z"/><path fill="#AAA" d="M68.04 81.182h-1.988c0-8.67 6.197-14.01 12.757-19.665 7.012-6.043 14.262-12.292 14.262-23.211 0-9.156-5.181-14.927-10.78-19.799l1.304-1.5c5.954 5.18 11.464 11.347 11.464 21.298 0 11.83-7.944 18.677-14.952 24.718-6.206 5.349-12.067 10.4-12.067 18.159Z"/><path fill="#AAA" d="M76.818 59.33c-9.487-8.773-10.766-15.55-10.766-21.024 0-11.903 8.011-18.508 15.08-24.335C87.272 8.91 93.07 4.13 93.07-3.389h1.988c0 8.456-6.15 13.526-12.662 18.894-7.058 5.819-14.357 11.835-14.357 22.8 0 8.965 4.868 14.7 10.128 19.564l-1.349 1.46ZM118.513 27.172h-13.062l-6.532-11.313 6.532-11.313h13.062l6.532 11.313-6.532 11.313Zm-11.915-1.988h10.768l5.383-9.325-5.383-9.325h-10.768l-5.384 9.325 5.384 9.325Z"/><path fill="#AAA" d="M135.701 16.853h-12.488L116.681 5.54l6.244-10.816 1.722.994-5.67 9.822 5.383 9.325h11.341v1.988ZM118.801 47.312l-1.722-.994 5.671-9.822-5.384-9.325h-11.341v-1.987h12.489l6.532 11.312-6.245 10.816Z"/><path fill="#AAA" d="M100.997 36.993 99.275 36l5.67-9.822-5.383-9.324H88.22v-1.988h12.488l6.532 11.312-6.244 10.816ZM136.274 37.49h-13.061l-6.532-11.313 6.532-11.312h13.061l6.532 11.312-6.532 11.313Zm-11.914-1.988h10.767l5.384-9.325-5.384-9.324H124.36l-5.383 9.324 5.383 9.325Z"/><path fill="#fff" d="M117.94 7.684a2.144 2.144 0 1 0 0-4.288 2.144 2.144 0 0 0 0 4.288Z"/><path fill="#AAA" d="M117.94 8.678a3.142 3.142 0 0 1-3.138-3.138 3.142 3.142 0 0 1 3.138-3.138 3.142 3.142 0 0 1 3.137 3.138 3.142 3.142 0 0 1-3.137 3.138Zm0-4.288c-.634 0-1.15.516-1.15 1.15 0 .634.516 1.15 1.15 1.15.634 0 1.15-.516 1.15-1.15 0-.634-.516-1.15-1.15-1.15Z"/><path fill="#fff" d="M106.025 7.684a2.144 2.144 0 1 0 0-4.288 2.144 2.144 0 0 0 0 4.288Z"/><path fill="#AAA" d="M106.025 8.678a3.142 3.142 0 0 1-3.138-3.138 3.142 3.142 0 0 1 3.138-3.138 3.141 3.141 0 0 1 3.137 3.138 3.141 3.141 0 0 1-3.137 3.138Zm0-4.288c-.634 0-1.15.516-1.15 1.15a1.15 1.15 0 1 0 1.15-1.15Z"/><path fill="#fff" d="M100.067 18.003a2.144 2.144 0 1 0 0-4.288 2.144 2.144 0 0 0 0 4.288Z"/><path fill="#AAA" d="M100.067 18.997a3.141 3.141 0 0 1-3.137-3.138 3.141 3.141 0 0 1 3.137-3.138 3.142 3.142 0 0 1 3.138 3.138 3.142 3.142 0 0 1-3.138 3.138Zm0-4.288a1.151 1.151 0 0 0 0 2.3c.634 0 1.15-.516 1.15-1.15 0-.634-.516-1.15-1.15-1.15Z"/><path fill="#fff" d="M120.387 26.845a2.143 2.143 0 1 0-4.068-1.356 2.144 2.144 0 0 0 4.068 1.356Z"/><path fill="#AAA" d="M118.357 29.315a3.141 3.141 0 0 1-3.137-3.138 3.14 3.14 0 0 1 3.137-3.137 3.142 3.142 0 0 1 3.138 3.137 3.142 3.142 0 0 1-3.138 3.138Zm0-4.288a1.15 1.15 0 1 0 .003 2.301 1.15 1.15 0 0 0-.003-2.3Z"/><path fill="#fff" d="M123.898 18.003a2.144 2.144 0 1 0 0-4.288 2.144 2.144 0 0 0 0 4.288Z"/><path fill="#AAA" d="M123.898 18.997a3.142 3.142 0 0 1-3.138-3.138 3.142 3.142 0 0 1 3.138-3.138 3.141 3.141 0 0 1 3.137 3.138 3.141 3.141 0 0 1-3.137 3.138Zm0-4.288a1.15 1.15 0 1 0 .001 2.301 1.15 1.15 0 0 0-.001-2.301Z"/><path fill="#fff" d="M136.118 18.003a2.144 2.144 0 1 0 0-4.288 2.144 2.144 0 0 0 0 4.288Z"/><path fill="#AAA" d="M136.118 18.997a3.141 3.141 0 0 1-3.137-3.138 3.141 3.141 0 0 1 3.137-3.138 3.142 3.142 0 0 1 3.138 3.138 3.142 3.142 0 0 1-3.138 3.138Zm0-4.288a1.151 1.151 0 0 0 0 2.3c.634 0 1.15-.516 1.15-1.15 0-.634-.516-1.15-1.15-1.15Z"/><path fill="#fff" d="M123.898 38.64a2.144 2.144 0 1 0 0-4.288 2.144 2.144 0 0 0 0 4.288Z"/><path fill="#AAA" d="M123.898 39.634a3.142 3.142 0 0 1-3.138-3.138 3.142 3.142 0 0 1 3.138-3.138 3.141 3.141 0 0 1 3.137 3.138 3.141 3.141 0 0 1-3.137 3.138Zm0-4.288a1.15 1.15 0 1 0 .001 2.302 1.15 1.15 0 0 0-.001-2.302Z"/><path fill="#fff" d="M136.118 38.64a2.144 2.144 0 1 0 0-4.288 2.144 2.144 0 0 0 0 4.288Z"/><path fill="#AAA" d="M136.118 39.634a3.141 3.141 0 0 1-3.137-3.138 3.141 3.141 0 0 1 3.137-3.138 3.142 3.142 0 0 1 3.138 3.138 3.142 3.142 0 0 1-3.138 3.138Zm0-4.288a1.151 1.151 0 0 0 0 2.3c.634 0 1.15-.516 1.15-1.15 0-.634-.516-1.15-1.15-1.15Z"/><path fill="#fff" d="M117.94 48.958a2.144 2.144 0 1 0 0-4.288 2.144 2.144 0 0 0 0 4.288Z"/><path fill="#AAA" d="M117.94 49.952a3.142 3.142 0 0 1-3.138-3.137 3.142 3.142 0 0 1 3.138-3.138 3.142 3.142 0 0 1 3.137 3.138 3.142 3.142 0 0 1-3.137 3.137Zm0-4.287c-.634 0-1.15.515-1.15 1.15 0 .634.516 1.15 1.15 1.15.634 0 1.15-.516 1.15-1.15 0-.635-.516-1.15-1.15-1.15Z"/><path fill="#fff" d="M100.136 38.64a2.144 2.144 0 1 0 0-4.288 2.144 2.144 0 0 0 0 4.288Z"/><path fill="#AAA" d="M100.136 39.634a3.141 3.141 0 0 1-3.137-3.138 3.141 3.141 0 0 1 3.137-3.138 3.142 3.142 0 0 1 3.138 3.138 3.142 3.142 0 0 1-3.138 3.138Zm0-4.288a1.151 1.151 0 0 0 0 2.3c.634 0 1.15-.516 1.15-1.15 0-.634-.516-1.15-1.15-1.15Z"/><path fill="#fff" d="M141.659 28.321a2.143 2.143 0 1 0 0-4.286 2.143 2.143 0 0 0 0 4.286Z"/><path fill="#AAA" d="M141.658 29.315a3.141 3.141 0 0 1-3.137-3.138 3.14 3.14 0 0 1 3.137-3.137 3.142 3.142 0 0 1 3.138 3.137 3.141 3.141 0 0 1-3.138 3.138Zm0-4.288c-.634 0-1.15.516-1.15 1.15 0 .634.516 1.15 1.15 1.15.634 0 1.15-.516 1.15-1.15 0-.634-.516-1.15-1.15-1.15Z"/><path fill="#fff" d="M105.666 28.321a2.144 2.144 0 1 0 0-4.288 2.144 2.144 0 0 0 0 4.288Z"/><path fill="#AAA" d="M105.666 29.315a3.142 3.142 0 0 1-3.138-3.138 3.142 3.142 0 0 1 3.138-3.137 3.14 3.14 0 0 1 3.137 3.137 3.141 3.141 0 0 1-3.137 3.138Zm0-4.288c-.634 0-1.15.516-1.15 1.15 0 .634.516 1.15 1.15 1.15.634 0 1.15-.516 1.15-1.15 0-.634-.516-1.15-1.15-1.15Z"/><path fill="#fff" d="M51.576 64.36c12.124 0 21.952-9.828 21.952-21.953 0-12.124-9.828-21.952-21.952-21.952-12.124 0-21.953 9.828-21.953 21.953 0 12.124 9.829 21.952 21.953 21.952Z"/><path fill="#AAA" d="M51.575 65.354c-12.652 0-22.946-10.293-22.946-22.946 0-12.654 10.294-22.947 22.946-22.947 12.653 0 22.947 10.294 22.947 22.947 0 12.652-10.293 22.946-22.947 22.946Zm0-43.905c-11.556 0-20.958 9.402-20.958 20.959 0 11.556 9.402 20.958 20.958 20.958 11.557 0 20.959-9.402 20.959-20.958 0-11.557-9.402-20.96-20.959-20.96Z"/><path fill="#fff" d="M127.363 129.558c3.833-11.503-2.383-23.935-13.886-27.769-11.502-3.834-23.935 2.383-27.768 13.885-3.834 11.503 2.383 23.935 13.885 27.769 11.503 3.834 23.935-2.383 27.769-13.885Z"/><path fill="#AAA" d="M106.536 145.575c-12.653 0-22.947-10.294-22.947-22.946 0-12.654 10.294-22.947 22.947-22.947 12.653 0 22.947 10.293 22.947 22.947 0 12.652-10.294 22.946-22.947 22.946Zm0-43.905c-11.557 0-20.96 9.402-20.96 20.959 0 11.556 9.403 20.958 20.96 20.958s20.959-9.402 20.959-20.958c0-11.557-9.402-20.959-20.959-20.959Z"/><path fill="#fff" d="M34.895 213.283c12.124 0 21.952-9.828 21.952-21.953 0-12.124-9.828-21.952-21.952-21.952-12.125 0-21.953 9.828-21.953 21.952 0 12.125 9.828 21.953 21.953 21.953Z"/><path fill="#AAA" d="M34.894 214.277c-12.652 0-22.946-10.294-22.946-22.947 0-12.652 10.293-22.946 22.946-22.946 12.654 0 22.947 10.294 22.947 22.946 0 12.653-10.294 22.947-22.947 22.947Zm0-43.905c-11.556 0-20.958 9.402-20.958 20.958 0 11.557 9.402 20.959 20.958 20.959 11.557 0 20.96-9.402 20.96-20.959 0-11.556-9.403-20.958-20.96-20.958Z"/><path fill="#3E3A39" d="m216.09 149.611-8.754-.563-2.354-8.996 4.845-2.669.462-3.772 1.974.242-.586 4.781-4.38 2.413 1.598 6.109 7.324.471-.129 1.984ZM226.205 144.039l-1.745-.952 3.515-6.443-4.311-4.614-4.379 2.412-4.355-2.06.85-1.796 3.436 1.625 4.844-2.669 6.347 6.794-4.202 7.703Z"/><path fill="#FFD800" d="m216.23 131.01-11.137-20.568-1.748.946.004.007-3.209 1.768-.874.473 11.136 20.569a.99.99 0 0 0 1.354.397l4.079-2.248a.994.994 0 0 0 .395-1.344Z"/><path fill="#FFD800" d="M199.419 113.336a3.834 3.834 0 0 1-2.283-3.498c0-.178.031-.376.062-.584a.992.992 0 0 0-1.345-1.077l-16.544 6.498a.994.994 0 0 0 .007 1.854c1.693.648 3.074 1.862 3.888 3.419.814 1.557 1.024 3.383.591 5.144a.996.996 0 0 0 1.576 1.022l14.255-11.085a.994.994 0 0 0-.207-1.693Z"/><path fill="#6E6E6E" d="M200.967 104.649a5.15 5.15 0 0 0-5.113 4.397c-.035.233-.076.496-.076.792a5.193 5.193 0 0 0 3.089 4.739c.673.298 1.379.45 2.1.45a5.193 5.193 0 0 0 5.187-5.189 5.194 5.194 0 0 0-5.187-5.189Z"/><path stroke="#AAA" stroke-linejoin="round" stroke-miterlimit="10" stroke-width="2" d="M41.717 182.699H28.113a1.869 1.869 0 0 0-1.864 1.863v13.605c0 1.025.839 1.863 1.864 1.863h13.604a1.869 1.869 0 0 0 1.864-1.863v-13.605a1.869 1.869 0 0 0-1.864-1.863ZM26.808 183.258l16.213 16.213M25.97 191.364l-3.914-2.236v4.473l3.914-2.237ZM47.494 191.364l-3.913-2.236v4.473l3.913-2.237ZM113.782 114.579h-13.604a1.869 1.869 0 0 0-1.864 1.863v13.605c0 1.025.84 1.863 1.864 1.863h13.604a1.869 1.869 0 0 0 1.864-1.863v-13.605a1.869 1.869 0 0 0-1.864-1.863ZM98.874 115.138l16.213 16.213M98.035 123.244l-3.913-2.236v4.473l3.913-2.237ZM119.56 123.244l-3.914-2.236v4.473l3.914-2.237ZM58.613 33.61H45.01a1.87 1.87 0 0 0-1.864 1.864V49.08a1.87 1.87 0 0 0 1.864 1.863h13.604a1.87 1.87 0 0 0 1.864-1.863V35.474a1.87 1.87 0 0 0-1.864-1.863ZM43.705 34.17l16.213 16.213M42.866 42.276l-3.913-2.236v4.473l3.913-2.237Z"/><path stroke="#AAA" stroke-linejoin="round" stroke-miterlimit="10" stroke-width="2" d="m64.39 42.276-3.913-2.236v4.473l3.914-2.237Z"/></svg>