<svg xmlns="http://www.w3.org/2000/svg" fill="none" viewBox="0 0 190 190">
<path d="M12 0.5H178C184.351 0.5 189.5 5.64873 189.5 12V178C189.5 184.351 184.351 189.5 178 189.5H12C5.64873 189.5 0.5 184.351 0.5 178V12C0.5 5.64873 5.64873 0.5 12 0.5Z" fill="white" stroke="#6E6E6E"/>
<path d="M76 55L44 55V84" stroke="#F89639" stroke-width="2"/>
<path d="M114.5 55L146 55V84" stroke="#F89639" stroke-width="2"/>
<path d="M76 143H44V122" stroke="#F89639" stroke-width="2"/>
<path d="M114 143H146V122.5" stroke="#F89639" stroke-width="2"/>
<path d="M58 117.283C54.3925 120.819 49.4509 123 44 123C38.5491 123 33.6075 120.819 30 117.283V116.066L30.6991 115.688C34.6571 113.548 39.1887 112.333 44 112.333C48.8113 112.333 53.3429 113.548 57.3009 115.688L58 116.066V117.283Z" fill="#201E1E"/>
<path d="M36 103C36 98.5817 39.5817 95 44 95C48.4183 95 52 98.5817 52 103V109.667H36V103Z" fill="#201E1E"/>
<path d="M63 103C63 113.493 54.4934 122 44 122C33.5066 122 25 113.493 25 103C25 92.5066 33.5066 84 44 84C54.4934 84 63 92.5066 63 103Z" stroke="#FF9632" stroke-width="2"/>
<path d="M109 69.2825C105.392 72.819 100.451 74.9997 95 74.9997C89.5491 74.9997 84.6075 72.819 81 69.2825V68.0661L81.6991 67.6881C85.6571 65.5477 90.1887 64.333 95 64.333C99.8113 64.333 104.343 65.5477 108.301 67.6881L109 68.0661V69.2825Z" fill="#201E1E"/>
<path fill-rule="evenodd" clip-rule="evenodd" d="M95 61.667C90.5817 61.667 87 58.0853 87 53.667V47.0003H103V53.667C103 58.0853 99.4183 61.667 95 61.667Z" fill="#201E1E"/>
<path d="M114 55C114 65.4934 105.493 74 95 74C84.5066 74 76 65.4934 76 55C76 44.5066 84.5066 36 95 36C105.493 36 114 44.5066 114 55Z" stroke="#FF9632" stroke-width="2"/>
<path d="M109 157.283C105.392 160.819 100.451 163 95 163C89.5491 163 84.6075 160.819 81 157.283V156.066L81.6991 155.688C85.6571 153.548 90.1887 152.333 95 152.333C99.8113 152.333 104.343 153.548 108.301 155.688L109 156.066V157.283Z" fill="#201E1E"/>
<path fill-rule="evenodd" clip-rule="evenodd" d="M95 149.667C90.5817 149.667 87 146.085 87 141.667V135H103V141.667C103 146.085 99.4183 149.667 95 149.667Z" fill="#201E1E"/>
<path d="M114 143C114 153.493 105.493 162 95 162C84.5066 162 76 153.493 76 143C76 132.507 84.5066 124 95 124C105.493 124 114 132.507 114 143Z" stroke="#FF9632" stroke-width="2"/>
<path d="M160 117.283C156.392 120.819 151.451 123 146 123C140.549 123 135.608 120.819 132 117.283V116.066L132.699 115.688C136.657 113.548 141.189 112.333 146 112.333C150.811 112.333 155.343 113.548 159.301 115.688L160 116.066V117.283Z" fill="#201E1E"/>
<path d="M138 103C138 98.5817 141.582 95 146 95C150.418 95 154 98.5817 154 103V109.667H138V103Z" fill="#201E1E"/>
<path d="M165 103C165 113.493 156.493 122 146 122C135.507 122 127 113.493 127 103C127 92.5066 135.507 84 146 84C156.493 84 165 92.5066 165 103Z" stroke="#FF9632" stroke-width="2"/>
<path d="M24 83V31C24 28.7909 25.7909 27 28 27H162C164.209 27 166 28.7909 166 31V83" stroke="#C0C3C5" stroke-width="2"/>
<path fill-rule="evenodd" clip-rule="evenodd" d="M48 36C48.8284 36 49.5784 36.3358 50.1213 36.8787C50.6642 37.4216 51 38.1716 51 39C51 39.8284 50.6642 40.5784 50.1213 41.1213C49.5784 41.6642 48.8284 42 48 42C47.1716 42 46.4216 41.6642 45.8787 41.1213C45.3358 40.5784 45 39.8284 45 39C45 38.1716 45.3358 37.4216 45.8787 36.8787C46.4216 36.3358 47.1716 36 48 36ZM60 36C60.8284 36 61.5784 36.3358 62.1213 36.8787C62.6642 37.4216 63 38.1716 63 39C63 39.8284 62.6642 40.5784 62.1213 41.1213C61.5784 41.6642 60.8284 42 60 42C59.1716 42 58.4216 41.6642 57.8787 41.1213C57.3358 40.5784 57 39.8284 57 39C57 38.1716 57.3358 37.4216 57.8787 36.8787C58.4216 36.3358 59.1716 36 60 36ZM36 36C36.8284 36 37.5784 36.3358 38.1213 36.8787C38.6642 37.4216 39 38.1716 39 39C39 39.8284 38.6642 40.5784 38.1213 41.1213C37.5784 41.6642 36.8284 42 36 42C35.1716 42 34.4216 41.6642 33.8787 41.1213C33.3358 40.5784 33 39.8284 33 39C33 38.1716 33.3358 37.4216 33.8787 36.8787C34.4216 36.3358 35.1716 36 36 36Z" stroke="#C0C3C5" stroke-width="2"/>
</svg>
