<svg xmlns="http://www.w3.org/2000/svg" fill="none" viewBox="0 0 190 190">
<path d="M12 0.5H178C184.351 0.5 189.5 5.64873 189.5 12V178C189.5 184.351 184.351 189.5 178 189.5H12C5.64873 189.5 0.5 184.351 0.5 178V12C0.5 5.64873 5.64873 0.5 12 0.5Z" fill="white" stroke="#6E6E6E"/>
<path d="M190 45H110C107.791 45 106 46.7909 106 49V141C106 143.209 107.791 145 110 145H189.5" stroke="#F89639" stroke-width="2"/>
<path d="M135 117H119V131H135V117Z" fill="#C0C3C5"/>
<path d="M159 106H143V131H159V106Z" fill="#C0C3C5"/>
<path d="M183 88H167V131H183V88Z" fill="#F89639"/>
<path d="M183 58H119V62H183V58Z" fill="#201E1E"/>
<path d="M34 87H22C20.8954 87 20 87.8954 20 89V101C20 102.105 20.8954 103 22 103H34C35.1046 103 36 102.105 36 101V89C36 87.8954 35.1046 87 34 87Z" fill="#C0C3C5"/>
<path d="M88 103H76C74.8954 103 74 103.895 74 105V117C74 118.105 74.8954 119 76 119H88C89.1046 119 90 118.105 90 117V105C90 103.895 89.1046 103 88 103Z" fill="#C0C3C5"/>
<path d="M82 79H106" stroke="#F89639" stroke-width="2"/>
<path d="M33.6904 95H39.9986C45.3269 95 50.1567 98.134 52.3275 103C54.4984 107.866 59.3282 111 64.6565 111H81.6904" stroke="#C0C3C5" stroke-width="2"/>
<path d="M33.6904 95H39.9986C45.3269 95 50.1567 91.866 52.3275 87C54.4984 82.134 59.3282 79 64.6565 79H81.6904" stroke="#C0C3C5" stroke-width="2"/>
<path d="M91 67H73C71.3431 67 70 68.3431 70 70V88C70 89.6569 71.3431 91 73 91H91C92.6569 91 94 89.6569 94 88V70C94 68.3431 92.6569 67 91 67Z" fill="#F89639"/>
</svg>
