<svg xmlns="http://www.w3.org/2000/svg" fill="none" viewBox="0 0 190 190">
<path d="M12 0.5H178C184.351 0.5 189.5 5.64873 189.5 12V178C189.5 184.351 184.351 189.5 178 189.5H12C5.64873 189.5 0.5 184.351 0.5 178V12C0.5 5.64873 5.64873 0.5 12 0.5Z" fill="white" stroke="#6E6E6E"/>
<path d="M28.6904 95H34.9986C40.3269 95 47.3275 123 47.3275 123C47.3275 123 54.3282 151 59.6565 151H76.6904H134" stroke="#C0C4C6" stroke-width="2"/>
<path d="M28.6904 95H34.9986C49.2119 95 45.4432 39 59.6565 39H69.5H124.5" stroke="#201E1E" stroke-width="2"/>
<path d="M73 24H97C98.6569 24 100 25.3431 100 27V51C100 52.6569 98.6569 54 97 54H73C71.3431 54 70 52.6569 70 51V27C70 25.3431 71.3431 24 73 24Z" fill="white" stroke="#201E1E" stroke-width="2"/>
<path d="M72 140H90C91.1046 140 92 140.895 92 142V160C92 161.105 91.1046 162 90 162H72C70.8954 162 70 161.105 70 160V142C70 140.895 70.8954 140 72 140Z" fill="white" stroke="#C0C4C6" stroke-width="2"/>
<path d="M128 140H146C147.105 140 148 140.895 148 142V160C148 161.105 147.105 162 146 162H128C126.895 162 126 161.105 126 160V142C126 140.895 126.895 140 128 140Z" fill="white" stroke="#C0C4C6" stroke-width="2"/>
<path d="M10 84H28C29.1046 84 30 84.8954 30 86V104C30 105.105 29.1046 106 28 106H10C8.89543 106 8 105.105 8 104V86C8 84.8954 8.89543 84 10 84Z" fill="white" stroke="#201E1E" stroke-width="2"/>
<path d="M76.75 38.8833L83.2602 45.1875L93.25 32.8125" stroke="#201E1E" stroke-width="2" stroke-miterlimit="10" stroke-linejoin="round"/>
<path fill-rule="evenodd" clip-rule="evenodd" d="M149.407 21.0005C149.4 21.0002 149.393 21 149.385 21C143.408 21 138.408 24.7414 136.453 29.9888H135.984C129.174 29.9888 123.56 35.6029 123.56 42.4127C123.56 45.6738 125.047 48.8168 127.324 51.1393C129.602 53.4621 132.706 55 135.984 55H159.518C164.863 55 169 50.6874 169 45.5179C169 41.544 166.607 38.0315 163.028 36.6941C163.117 36.1346 163.116 35.5876 163.116 35.0827L163.116 35.0582C163.116 27.4234 156.845 21.3386 149.407 21.0005Z" fill="#FF9632"/>
</svg>
