<svg xmlns="http://www.w3.org/2000/svg" viewBox="0 0 32 32" fill="none" stroke="#000">
<circle cx="16" cy="16" r="8.5" />
<path d="M23.4893 9.37336L26.2531 6.60955L25.546 5.90245L22.79 8.65851C23.0347 8.88502 23.2682 9.12362 23.4893 9.37336Z" fill="black"/>
<path d="M9.37336 23.4893C9.12362 23.2682 8.88502 23.0347 8.65851 22.79L5.74703 25.7014L6.45414 26.4085L9.37336 23.4893Z" fill="black"/>
<path d="M15.5 25.9877V30H16.5V25.9877C16.3344 25.9959 16.1677 26 16 26C15.8323 26 15.6656 25.9959 15.5 25.9877Z" fill="black"/>
<path d="M15.5 6.01228C15.6656 6.00413 15.8323 6 16 6C16.1677 6 16.3344 6.00413 16.5 6.01228V2H15.5V6.01228Z" fill="black"/>
<path d="M22.7087 23.4159L25.2636 25.9707L25.9707 25.2636L23.4158 22.7088C23.192 22.956 22.956 23.192 22.7087 23.4159Z" fill="black"/>
<path d="M8.58414 9.29131C8.80796 9.04404 9.04398 8.80802 9.29124 8.5842L6.17167 5.46462L5.46456 6.17173L8.58414 9.29131Z" fill="black"/>
<path d="M25.9877 16.5C25.9959 16.3344 26 16.1677 26 16C26 15.8323 25.9959 15.6656 25.9877 15.5H30V16.5H25.9877Z" fill="black"/>
<path d="M6.01228 16.5H2V15.5H6.01228C6.00413 15.6656 6 15.8323 6 16C6 16.1677 6.00413 16.3344 6.01228 16.5Z" fill="black"/>
</svg>
